<?xml version="1.0" encoding="UTF-8" standalone="no"?>
<svg
   xmlns:dc="http://purl.org/dc/elements/1.1/"
   xmlns:cc="http://creativecommons.org/ns#"
   xmlns:rdf="http://www.w3.org/1999/02/22-rdf-syntax-ns#"
   xmlns:svg="http://www.w3.org/2000/svg"
   xmlns="http://www.w3.org/2000/svg"
   version="1.1"
   id="svg9626"
   viewBox="0 0 41.750998 44.938996"
   height="44.938999"
   width="41.750999">
  <defs
     id="defs9628">
    <style
       id="style10178">.a,.b{fill:none;stroke-linecap:square;stroke-linejoin:round;stroke-width:2px;}.a{stroke:#07c6b9;}.b{stroke:#2207c6;}</style>
  </defs>
  <metadata
     id="metadata9631">
    <rdf:RDF>
      <cc:Work
         rdf:about="">
        <dc:format>image/svg+xml</dc:format>
        <dc:type
           rdf:resource="http://purl.org/dc/dcmitype/StillImage" />
        <dc:title></dc:title>
      </cc:Work>
    </rdf:RDF>
  </metadata>
  <g
     transform="translate(0,-1007.4232)"
     id="layer1">
    <g
       transform="translate(1.010683,999.53632)"
       id="g10180">
      <g
         transform="translate(2.851,3.703)"
         id="g10182">
        <path
           style="fill:none;stroke:#07c6b9;stroke-width:2px;stroke-linecap:square;stroke-linejoin:round"
           class="a"
           d="M 19.329313,-0.92793702 0,33.809 38.848,33.516 19.275704,-1.3066097 14.671655,28.722848 -6.8043718e-4,33.802327 27.763033,23.181289 38.848,33.516 15.654912,14.867116 Z"
           transform="matrix(0.914,0.407,-0.407,0.914,13.751,0)"
           id="path10184" />
      </g>
      <path
         transform="matrix(0.914,0.407,-0.407,0.914,15.343,0)"
         style="fill:none;stroke:#2207c6;stroke-width:2px;stroke-linecap:square;stroke-linejoin:round"
         class="b"
         d="M 21.836,0 0,37.723 43.346,37.4 21.836,0 18.909,15 15.137,32.448 0,37.723 14.433,32.85 l 17.351,-5.586 0,0 L 43.346,37.4 18.909,15.65 Z"
         id="path10186" />
    </g>
  </g>
</svg>
