<svg xmlns="http://www.w3.org/2000/svg" width="58.7" height="54.733" viewBox="0 0 58.7 54.733"><defs><style>.a,.b{fill:none;stroke-linecap:square;stroke-linejoin:round;stroke-width:2px;}.a{stroke:#07c6b9;}.b{stroke:#2207c6;}</style></defs><g transform="translate(1.32 1.32)"><g transform="translate(2.851 3.703)"><path class="a" d="M19.57,0,0,33.809l38.848-.293L19.57,0,16.947,13.44l-3.38,15.64L0,33.809l12.936-4.368,15.55-5.006h0l10.362,9.081-21.9-19.489Z" transform="matrix(0.914, 0.407, -0.407, 0.914, 13.751, 0)"/></g><path class="b" d="M21.836,0,0,37.723,43.346,37.4,21.836,0,18.909,15,15.137,32.448,0,37.723,14.433,32.85l17.351-5.586h0L43.346,37.4,18.909,15.65Z" transform="matrix(0.914, 0.407, -0.407, 0.914, 15.343, 0)"/></g></svg>