<?xml version="1.0" encoding="UTF-8" standalone="no"?>
<!DOCTYPE svg PUBLIC "-//W3C//DTD SVG 1.1//EN" "http://www.w3.org/Graphics/SVG/1.1/DTD/svg11.dtd">
<svg width="100%" height="100%" viewBox="0 0 2732 1000" version="1.1" xmlns="http://www.w3.org/2000/svg" xmlns:xlink="http://www.w3.org/1999/xlink" xml:space="preserve" xmlns:serif="http://www.serif.com/" style="fill-rule:evenodd;clip-rule:evenodd;stroke-linecap:square;stroke-linejoin:round;">
    <g id="g4142">
        <path d="M903.235,561.215C903.235,580.819 909.455,588.816 923.699,588.816L959.409,588.816C1003.35,588.816 1029.83,550.381 1029.83,486.15C1029.83,423.983 1003.75,387.869 959.409,387.869L923.699,387.869C909.455,387.869 903.235,395.866 903.235,415.728L903.235,561.215ZM922.294,418.566C922.294,413.149 925.103,410.053 928.915,410.053L959.008,410.053C992.111,410.053 1009.97,437.139 1009.97,486.408C1009.97,536.709 990.907,566.374 958.406,566.374L928.714,566.374C924.702,566.374 922.294,563.536 922.294,557.603L922.294,418.566Z" style="fill-rule:nonzero;"/>
        <path d="M1122.71,497.5C1101.25,498.016 1090.82,499.564 1079.78,503.433C1060.72,510.14 1049.49,525.617 1049.49,549.865C1049.49,576.434 1062.93,592.427 1085,592.427C1104.86,592.427 1115.49,582.367 1123.12,571.275C1123.32,576.434 1123.72,581.077 1124.32,584.173C1125.12,588.816 1128.73,590.363 1132.75,590.363L1134.55,590.363C1139.57,589.848 1142.58,586.236 1142.58,582.109C1142.58,581.335 1142.38,580.303 1142.17,579.529C1140.97,574.628 1139.97,565.858 1139.97,556.829L1139.97,486.408C1139.97,455.969 1126.73,442.298 1099.84,442.298C1083.59,442.298 1074.57,446.683 1067.54,453.648C1062.93,458.291 1057.71,465.772 1055.71,473.768C1055.51,474.8 1055.31,475.832 1055.31,476.864C1055.31,481.507 1058.12,485.118 1061.93,486.666C1063.33,487.44 1064.94,487.698 1066.54,487.698C1069.95,487.698 1072.96,485.892 1074.37,480.991C1077.78,469.125 1085,461.902 1099.64,461.902C1115.49,461.902 1122.71,469.383 1122.71,486.408L1122.71,497.5ZM1122.71,533.356C1122.71,543.158 1121.31,548.059 1117.5,554.25C1111.08,564.568 1100.65,572.565 1088.01,572.565C1075.97,572.565 1067.94,563.536 1067.94,550.123C1067.94,537.741 1072.16,529.744 1080.18,524.585C1088.21,519.426 1099.24,516.846 1122.71,516.073L1122.71,533.356Z" style="fill-rule:nonzero;"/>
        <path d="M1219.21,531.55C1216.61,540.32 1212.79,558.635 1210.99,568.179C1209.38,558.893 1205.37,541.61 1202.96,532.84L1179.69,451.584C1178.29,446.425 1175.28,444.361 1171.67,444.361C1170.46,444.361 1169.06,444.619 1167.65,445.135C1163.84,446.425 1161.23,450.294 1161.23,455.195C1161.23,456.485 1161.43,457.775 1161.84,459.323L1198.75,579.787C1201.16,587.784 1205.37,590.363 1210.79,590.363C1216,590.363 1220.42,588.042 1222.83,580.045L1259.74,459.323C1260.34,457.775 1260.54,456.227 1260.54,454.937C1260.54,450.036 1257.93,446.683 1253.92,445.135C1252.52,444.619 1251.31,444.361 1250.11,444.361C1246.5,444.361 1243.69,446.683 1242.08,451.842L1219.21,531.55Z" style="fill-rule:nonzero;"/>
        <path d="M1280.2,580.045C1280.2,587.01 1283.61,590.363 1289.23,590.363C1294.65,590.363 1298.46,587.01 1298.46,580.045L1298.46,454.422C1298.46,447.715 1294.65,444.361 1289.23,444.361C1283.61,444.361 1280.2,447.715 1280.2,454.422L1280.2,580.045ZM1289.43,386.064C1281.81,386.064 1275.79,393.544 1275.79,403.347C1275.79,413.407 1281.81,420.887 1289.43,420.887C1296.85,420.887 1302.87,413.407 1302.87,403.347C1302.87,393.544 1296.85,386.064 1289.43,386.064Z" style="fill-rule:nonzero;"/>
        <path d="M1405.99,452.874C1405.99,458.549 1406.39,466.029 1406.79,471.962C1399.77,453.648 1388.54,442.298 1369.88,442.298C1340.19,442.298 1321.93,471.447 1321.93,516.589C1321.93,563.02 1340.39,592.685 1369.68,592.685C1388.34,592.685 1399.77,581.593 1406.59,563.536C1406.39,567.148 1405.99,572.565 1405.99,575.402L1405.99,580.819C1405.99,586.236 1408.8,590.363 1414.62,590.363C1420.24,590.363 1423.85,587.01 1423.85,580.045L1423.85,396.64C1423.85,389.675 1420.44,386.322 1414.82,386.322C1409.8,386.322 1405.99,389.675 1405.99,396.64L1405.99,452.874ZM1372.29,462.418C1394.36,462.418 1406.39,485.634 1406.39,517.104C1406.39,549.091 1393.35,572.565 1372.29,572.565C1352.03,572.565 1340.39,550.639 1340.39,516.846C1340.39,484.086 1352.03,462.418 1372.29,462.418Z" style="fill-rule:nonzero;"/>
        <path d="M1584.95,384C1543.22,384 1515.73,425.531 1515.73,488.214C1515.73,552.444 1543.22,592.943 1586.35,592.943C1622.06,592.943 1638.91,564.052 1645.93,538.515C1646.34,536.967 1646.54,535.677 1646.54,534.129C1646.54,528.712 1642.92,524.843 1639.52,523.811C1638.11,523.295 1636.71,523.037 1635.5,523.037C1631.69,523.037 1628.08,525.359 1626.47,531.034C1621.26,551.67 1609.82,570.243 1585.75,570.243C1555.65,570.243 1535.79,538.257 1535.79,488.472C1535.79,437.655 1555.65,406.442 1585.75,406.442C1608.62,406.442 1618.65,421.661 1624.67,440.234C1626.47,445.135 1629.68,446.941 1633.1,446.941C1634.7,446.941 1636.31,446.683 1637.91,445.909C1640.92,444.619 1644.13,441.008 1644.13,435.591C1644.13,434.043 1643.93,432.237 1643.33,430.432C1636.1,407.732 1620.26,384 1584.95,384Z" style="fill-rule:nonzero;"/>
        <path d="M1760.69,492.599C1760.69,460.87 1747.85,442.298 1723.98,442.298C1702.91,442.298 1691.88,455.969 1685.26,474.284C1685.66,470.415 1686.46,464.482 1686.46,461.128L1686.46,396.382C1686.46,389.417 1683.05,386.322 1677.83,386.322C1672.22,386.322 1668.4,389.675 1668.4,396.382L1668.4,580.045C1668.4,587.01 1672.22,590.363 1677.83,590.363C1683.05,590.363 1686.46,587.01 1686.46,580.045L1686.46,507.818C1686.46,497.758 1688.67,490.277 1693.68,481.507C1700.3,470.157 1709.13,463.45 1720.37,463.45C1735.41,463.45 1742.43,475.574 1742.43,497.5L1742.43,580.045C1742.43,587.01 1746.05,590.363 1751.46,590.363C1756.68,590.363 1760.69,587.01 1760.69,580.045L1760.69,492.599Z" style="fill-rule:nonzero;"/>
        <path d="M1835.52,442.298C1803.02,442.298 1783.56,472.478 1783.56,517.104C1783.56,563.02 1802.82,592.943 1835.92,592.943C1867.22,592.943 1886.48,561.989 1886.48,517.104C1886.48,472.22 1867.62,442.298 1835.52,442.298ZM1836.12,462.16C1856.59,462.16 1868.02,484.344 1868.02,516.846C1868.02,551.154 1856.59,573.081 1834.72,573.081C1814.06,573.081 1802.02,550.639 1802.02,517.878C1802.02,483.57 1814.46,462.16 1836.12,462.16Z" style="fill-rule:nonzero;"/>
        <path d="M1912.56,580.045C1912.56,587.01 1916.37,590.363 1921.99,590.363C1927.01,590.363 1931.02,587.01 1931.02,580.045L1931.02,508.85C1931.22,498.016 1934.23,488.472 1939.44,480.217C1944.46,471.962 1951.08,466.287 1959.71,466.029C1963.92,466.029 1966.53,466.803 1969.34,467.577C1969.94,467.835 1970.54,467.835 1971.14,467.835C1975.36,467.835 1978.16,463.192 1978.97,457.775C1979.17,456.227 1979.37,454.679 1979.37,453.39C1979.37,448.489 1977.56,444.877 1972.95,444.103C1970.14,443.33 1967.93,442.814 1964.92,442.814C1963.52,442.814 1962.11,442.814 1960.51,443.072C1943.26,443.845 1933.02,459.839 1929.81,472.22C1930.22,468.093 1931.02,463.708 1931.02,460.097L1931.02,454.422C1931.02,447.715 1927.01,444.361 1921.99,444.361C1916.37,444.361 1912.56,447.715 1912.56,454.422L1912.56,580.045Z" style="fill-rule:nonzero;"/>
        <path d="M2045.77,531.55C2043.16,540.32 2039.35,558.635 2037.55,568.179C2035.94,558.893 2031.93,541.61 2029.52,532.84L2006.25,451.584C2004.85,446.425 2001.84,444.361 1998.23,444.361C1997.02,444.361 1995.62,444.619 1994.21,445.135C1990.4,446.425 1987.79,450.294 1987.79,455.195C1987.79,456.485 1987.99,457.775 1988.39,459.323L2025.31,579.787C2027.72,587.784 2031.93,590.363 2037.35,590.363C2042.56,590.363 2046.98,588.042 2049.38,580.045L2086.3,459.323C2086.9,457.775 2087.1,456.227 2087.1,454.937C2087.1,450.036 2084.49,446.683 2080.48,445.135C2079.08,444.619 2077.87,444.361 2076.67,444.361C2073.06,444.361 2070.25,446.683 2068.64,451.842L2045.77,531.55Z" style="fill-rule:nonzero;"/>
        <path d="M2106.76,580.045C2106.76,587.01 2110.17,590.363 2115.79,590.363C2121.21,590.363 2125.02,587.01 2125.02,580.045L2125.02,454.422C2125.02,447.715 2121.21,444.361 2115.79,444.361C2110.17,444.361 2106.76,447.715 2106.76,454.422L2106.76,580.045ZM2115.99,386.064C2108.37,386.064 2102.35,393.544 2102.35,403.347C2102.35,413.407 2108.37,420.887 2115.99,420.887C2123.41,420.887 2129.43,413.407 2129.43,403.347C2129.43,393.544 2123.41,386.064 2115.99,386.064Z" style="fill-rule:nonzero;"/>
        <path d="M2245.99,492.599C2245.99,460.87 2233.15,442.298 2209.28,442.298C2190.22,442.298 2178.18,453.906 2171.16,472.22C2171.36,467.319 2171.96,464.74 2171.96,461.386L2171.96,454.422C2171.96,447.715 2168.35,444.361 2163.14,444.361C2157.52,444.361 2153.71,447.715 2153.71,454.422L2153.71,580.045C2153.71,587.01 2157.32,590.363 2162.93,590.363C2168.15,590.363 2171.96,587.01 2171.96,580.045L2171.96,507.818C2171.96,497.758 2173.97,490.277 2178.99,481.507C2185.81,469.383 2194.83,463.192 2205.67,463.192C2220.71,463.192 2227.53,475.574 2227.53,497.5L2227.53,580.045C2227.53,587.01 2231.35,590.363 2236.76,590.363C2241.98,590.363 2245.99,587.01 2245.99,580.045L2245.99,492.599Z" style="fill-rule:nonzero;"/>
        <path d="M2317.21,526.133C2335.47,530.776 2340.69,537.741 2340.69,550.381C2340.69,563.536 2330.25,572.565 2314.2,572.565C2298.35,572.565 2290.13,565.084 2286.52,550.123C2285.31,545.221 2281.7,543.158 2277.89,543.158C2277.09,543.158 2276.09,543.416 2275.08,543.674C2271.27,544.706 2267.86,548.317 2267.86,553.476C2267.86,554.508 2268.06,555.54 2268.26,556.829C2273.48,579.787 2288.52,592.943 2314.2,592.943C2342.29,592.943 2358.74,574.628 2358.74,549.865C2358.74,522.779 2348.31,512.977 2322.23,506.012L2309.79,502.659C2292.94,498.016 2289.13,492.857 2289.13,480.991C2289.13,470.157 2296.75,461.644 2313,461.644C2324.43,461.644 2333.26,467.577 2335.87,479.185C2336.87,484.086 2340.49,486.15 2344.1,486.15C2345.1,486.15 2346.3,485.892 2347.31,485.634C2350.92,484.344 2354.33,480.991 2354.33,476.09C2354.33,475.058 2354.13,474.026 2353.93,472.994C2348.91,454.164 2334.67,442.04 2312.4,442.04C2286.52,442.04 2270.87,458.033 2270.87,481.507C2270.87,506.012 2281.1,517.104 2305.78,523.295L2317.21,526.133Z" style="fill-rule:nonzero;"/>
        <path d="M2399.67,537.999L2414.91,519.168L2452.23,586.236C2453.84,589.074 2456.44,590.363 2459.05,590.363C2461.06,590.363 2462.86,589.848 2464.47,588.558C2467.08,586.494 2469.08,582.625 2469.08,578.756C2469.08,576.692 2468.68,574.886 2467.68,573.081L2427.76,504.723L2461.66,463.966C2463.47,461.644 2464.27,459.323 2464.27,456.743C2464.27,453.906 2463.06,450.81 2461.26,448.231C2459.65,445.651 2457.25,444.361 2454.64,444.361C2452.63,444.361 2450.43,445.393 2448.62,447.715L2399.67,510.398L2399.67,395.866C2399.67,389.159 2396.06,386.322 2390.84,386.322C2385.22,386.322 2381.61,389.675 2381.61,396.382L2381.61,580.045C2381.61,587.01 2385.02,590.363 2390.64,590.363C2396.06,590.363 2399.67,587.01 2399.67,580.045L2399.67,537.999Z" style="fill-rule:nonzero;"/>
        <path d="M2536.29,536.967C2534.08,544.448 2531.28,554.25 2529.67,562.246C2527.87,554.25 2526.06,544.706 2523.65,536.451L2498.37,450.81C2496.97,446.167 2493.96,444.361 2490.75,444.361C2489.35,444.361 2487.94,444.619 2486.54,445.135C2482.93,446.683 2479.92,450.552 2479.92,455.195C2479.92,456.485 2480.12,458.033 2480.52,459.323L2521.04,585.72L2515.43,603.777C2511.82,615.643 2507.6,625.445 2498.98,625.445C2495.36,625.445 2491.75,623.64 2488.95,622.092C2487.54,621.318 2486.34,621.06 2485.13,621.06C2481.72,621.06 2479.11,623.898 2477.71,628.283C2477.11,630.346 2476.71,632.152 2476.71,634.216C2476.71,638.085 2478.31,641.696 2482.32,643.502C2486.94,645.824 2491.75,646.855 2496.77,646.855C2516.43,646.855 2524.66,632.152 2531.68,609.968L2579.02,459.065C2579.43,457.517 2579.62,455.969 2579.62,454.679C2579.62,450.036 2576.82,446.425 2573.01,445.135C2571.8,444.877 2570.6,444.619 2569.39,444.619C2565.98,444.619 2562.97,446.425 2561.57,451.326L2536.29,536.967Z" style="fill-rule:nonzero;"/>
        <g>
            <g id="g4144">
                <path id="path4146" d="M662.816,155.513L128.513,641.825L814.893,854.243L662.816,155.513L541.307,377.717L394.133,634.458L128.513,641.825L380.989,637.287L683.113,636.144L814.893,854.243L538.037,388.069L662.816,155.513Z" style="fill:none;fill-rule:nonzero;stroke:rgb(91,66,228);stroke-width:36.99px;"/>
            </g>
            <path id="path4148" d="M672.028,102.762L75.862,645.371L841.693,882.453L672.028,102.762L536.423,350.76L372.213,637.174L75.862,645.371L357.553,640.316L694.67,639.038L841.693,882.453L532.783,362.217L672.028,102.762Z" style="fill:none;fill-rule:nonzero;stroke:rgb(145,120,255);stroke-width:36.99px;"/>
        </g>
    </g>
</svg>
