<?xml version="1.0" encoding="UTF-8" standalone="no"?>
<svg
   xmlns:dc="http://purl.org/dc/elements/1.1/"
   xmlns:cc="http://creativecommons.org/ns#"
   xmlns:rdf="http://www.w3.org/1999/02/22-rdf-syntax-ns#"
   xmlns:svg="http://www.w3.org/2000/svg"
   xmlns="http://www.w3.org/2000/svg"
   xmlns:xlink="http://www.w3.org/1999/xlink"
   id="svg894"
   version="1.1"
   viewBox="0 0 91 55"
   height="55"
   width="91">
  <metadata
     id="metadata898">
    <rdf:RDF>
      <cc:Work
         rdf:about="">
        <dc:format>image/svg+xml</dc:format>
        <dc:type
           rdf:resource="http://purl.org/dc/dcmitype/StillImage" />
        <dc:title>SSFS Logo</dc:title>
      </cc:Work>
    </rdf:RDF>
  </metadata>
  <!-- Generator: Sketch 53.2 (72643) - https://sketchapp.com -->
  <title
     id="title833">SSFS Logo</title>
  <desc
     id="desc835">Created with Sketch.</desc>
  <defs
     id="defs838">
    <polygon
       points="0.25506201,1.1114583 13.100258,1.1114583 13.100258,13.68125 0.25506201,13.68125 "
       id="path-1" />
  </defs>
  <g
     fill-rule="evenodd"
     fill="none"
     stroke-width="1"
     stroke="none"
     id="Designs">
    <g
       transform="translate(-130,-10)"
       id="Homepage---R3_00">
      <g
         id="Header">
        <g
           id="SSFS-Logo">
          <g
             id="g888"
             transform="translate(130,10)">
            <g
               id="SSFS_logo_tag_2c">
              <g
                 transform="translate(188.50946,96.25)"
                 id="Group-16">
                <mask
                   fill="white"
                   id="mask-2">
                  <use
                     height="100%"
                     width="100%"
                     y="0"
                     x="0"
                     id="use852"
                     xlink:href="#path-1" />
                </mask>
                <g
                   id="Clip-14" />
                <path
                   mask="url(#mask-2)"
                   fill="#005C42"
                   id="Fill-13"
                   d="M 0.26322358,9.4290625 C 0.22414235,8.9489583 0.32874211,8.2797917 0.5057571,7.8776042 c 0.077013,-0.066458 0.21149842,-0.066458 0.28161474,0.029792 0.0931053,1.1595834 0.64254136,2.0430209 1.98509666,2.0430209 0.8586376,0 1.9563604,-0.5488542 1.9563604,-1.8848959 0,-0.99 -0.631047,-1.5377083 -1.3414058,-2.1003125 -0.6977149,-0.5603125 -1.3942804,-1.3646875 -1.3942804,-2.32375 0,-1.4586458 1.1528963,-2.53 2.9356901,-2.53 0.872431,0 1.6506073,0.3345834 1.9471648,0.5351042 C 6.6886376,1.9811458 6.5139215,2.729375 6.3805856,3.1991667 6.2851814,3.2782292 6.0989708,3.265625 6.01736,3.1842708 6.2035706,2.275625 5.9495426,1.52625 4.7564156,1.52625 c -1.2218632,0 -1.8115299,0.790625 -1.8115299,1.7130208 0,0.8960417 0.8184069,1.5491667 1.3000256,1.925 0.8195564,0.6279167 1.4517527,1.3371875 1.4517527,2.43375 0,1.5904167 -1.2218631,2.7683332 -3.0851183,2.7683332 -0.9666857,0 -1.89429018,-0.294479 -2.34832212,-0.9372915" />
                <path
                   mask="url(#mask-2)"
                   fill="#005C42"
                   id="Fill-15"
                   d="m 10.657681,5.3109375 c 0.0954,-0.012604 0.203453,-0.026354 0.350582,-0.026354 0.575873,0 1.057492,0.3334375 1.057492,1.0026042 0,0.5878125 -0.148279,1.5239583 -0.789671,2.5151042 -0.579321,0.89375 -1.3287614,1.0816666 -1.5023281,1.0816666 -0.2160962,0 -0.4161001,-0.1741666 -0.4988604,-0.3082291 -0.051725,-0.080208 -0.064369,-0.213125 -0.012644,-0.3597917 z m 0.390813,-1.216875 C 10.99447,3.8923958 10.457677,3.7583333 10.279513,3.905 L 9.881804,4.9901042 C 9.2231704,5.1642708 8.6863782,5.3922917 8.2174034,5.7234375 8.1771727,5.8448958 8.2449901,5.9652083 8.3518888,5.9789583 8.9162677,5.6982292 9.2231704,5.5653125 9.7036396,5.43125 l -2.4908537,6.979271 c -0.2034523,0.548854 -0.254028,0.857083 -1.0092153,0.991146 l -0.2931092,0.05271 c -0.093105,0.08135 -0.093105,0.213125 0,0.295625 0.9000177,-0.02865 1.9057847,-0.0825 2.9230461,-0.0825 0.1218415,-0.05271 0.1218415,-0.199375 0.055174,-0.294479 L 8.3392449,13.293958 C 7.8932591,13.2275 7.8679712,13.104896 8.2311968,12.075938 l 0.5494361,-1.575521 c 0.040231,-0.135209 0.1080481,-0.214271 0.2137973,-0.241771 0.1896589,0.05385 0.2942587,0.08021 0.4161002,0.08021 0.055173,0 1.0747336,-0.05271 1.9184286,-0.7631248 1.01956,-0.8559375 1.771299,-1.93875 1.771299,-3.169375 0,-1.2672917 -1.20692,-1.5239584 -1.824174,-1.5239584 -0.255177,0 -0.403456,0.0275 -0.510354,0.0275 l 0.282764,-0.8158333 z" />
              </g>
              <path
                 style="stroke-width:0.997348"
                 fill="#FACD49"
                 id="Fill-44"
                 d="M 25.557466,24.066802 44.230224,4.8966179 V 42.603948 Z M 5.94859,44.198517 23.803553,25.86782 42.269564,44.199658 Z M 46.752549,4.8966179 65.104854,23.732603 46.752549,42.461373 Z M 85.049112,44.201938 48.568485,44.199649 66.858767,25.533613 Z M 48.30545,49.008457 c -0.29748,0.18934 -0.949888,0.272605 -1.552901,0.260058 V 46.704431 L 91,46.706721 45.491391,0 0,46.703299 l 44.230224,0.0011 v 2.561803 c -0.508823,-0.01711 -1.006166,-0.101514 -1.254262,-0.261198 -0.511132,-0.334199 -2.215651,-0.717443 -2.896767,0.366134 0.206747,0.577148 1.354198,2.094155 3.321743,2.262964 0,1.154296 0.291744,2.700959 2.231729,3.360229 V 55 c 0.002,-0.0011 0.003,-0.0023 0.007,-0.0034 0.002,0.0011 0.003,0.0023 0.006,0.0034 v -0.0057 c 1.950328,-0.65927 2.236326,-2.205933 2.236326,-3.360229 1.964097,-0.168809 3.106952,-1.685816 3.311411,-2.262964 C 50.514576,48.287556 48.818101,48.6708 48.30582,49.00842 Z" />
            </g>
          </g>
        </g>
      </g>
    </g>
  </g>
</svg>
