<?xml version="1.0" encoding="UTF-8" standalone="no"?>
<svg
   xmlns:dc="http://purl.org/dc/elements/1.1/"
   xmlns:cc="http://creativecommons.org/ns#"
   xmlns:rdf="http://www.w3.org/1999/02/22-rdf-syntax-ns#"
   xmlns:svg="http://www.w3.org/2000/svg"
   xmlns="http://www.w3.org/2000/svg"
   xmlns:xlink="http://www.w3.org/1999/xlink"
   xmlns:sodipodi="http://sodipodi.sourceforge.net/DTD/sodipodi-0.dtd"
   xmlns:inkscape="http://www.inkscape.org/namespaces/inkscape"
   width="58.162998mm"
   height="32.033001mm"
   viewBox="0 0 58.162998 32.033001"
   version="1.1"
   id="svg8"
   inkscape:version="0.91 r13725"
   sodipodi:docname="agile2.svg">
  <sodipodi:namedview
     pagecolor="#ffffff"
     bordercolor="#666666"
     borderopacity="1"
     objecttolerance="10"
     gridtolerance="10"
     guidetolerance="10"
     inkscape:pageopacity="0"
     inkscape:pageshadow="2"
     inkscape:window-width="2560"
     inkscape:window-height="1377"
     id="namedview254"
     showgrid="false"
     inkscape:zoom="2.8284271"
     inkscape:cx="-124.04188"
     inkscape:cy="-96.250313"
     inkscape:window-x="1912"
     inkscape:window-y="-8"
     inkscape:window-maximized="1"
     inkscape:current-layer="layer1-9" />
  <defs
     id="defs2">
    <linearGradient
       inkscape:collect="always"
       id="linearGradient5709">
      <stop
         style="stop-color:#3c1479;stop-opacity:1"
         offset="0"
         id="stop5711" />
      <stop
         style="stop-color:#bc0000;stop-opacity:1"
         offset="1"
         id="stop5713" />
    </linearGradient>
    <linearGradient
       id="linearGradient1464">
      <stop
         id="stop1460"
         offset="0"
         style="stop-color:#89e08d;stop-opacity:1" />
      <stop
         id="stop1462"
         offset="1"
         style="stop-color:#e0e89e;stop-opacity:1" />
    </linearGradient>
    <pattern
       patternTransform="matrix(10,0,0,10,-199.51598,-453.16896)"
       id="pattern5708"
       xlink:href="#Strips1_1" />
    <pattern
       patternUnits="userSpaceOnUse"
       width="2"
       height="1"
       patternTransform="translate(0,0) scale(10,10)"
       id="Strips1_1">
      <rect
         style="fill:black;stroke:none"
         x="0"
         y="-0.5"
         width="1"
         height="2"
         id="rect4989" />
    </pattern>
    <linearGradient
       id="linearGradient4238">
      <stop
         id="stop4240"
         offset="0"
         style="stop-color:#bf33ff;stop-opacity:1" />
      <stop
         id="stop4242"
         offset="1"
         style="stop-color:#6561e2;stop-opacity:1" />
    </linearGradient>
    <linearGradient
       gradientTransform="matrix(4.4002847,0,0,4.0297785,-876.84891,-893.93159)"
       gradientUnits="userSpaceOnUse"
       y2="467.93912"
       x2="249.27859"
       y1="467.93912"
       x1="203.99805"
       id="linearGradient4244"
       xlink:href="#linearGradient4238" />
    <pattern
       id="pattern5705"
       patternTransform="translate(199.51598,453.16896)"
       height="29.57399"
       width="45.280553"
       patternUnits="userSpaceOnUse">
      <path
         style="fill:url(#pattern5708);fill-opacity:1;fill-rule:evenodd;stroke:#000000;stroke-width:0.574;stroke-linecap:butt;stroke-linejoin:miter;stroke-miterlimit:4;stroke-dasharray:none;stroke-opacity:0"
         d="M 44.4104,0.41734902 5.1896,29.285659 c -2.56186,-0.0361 -4.71144,-2.76743 -4.9026,-4.83767 l 0,-19.35065 C 0.375,2.416839 2.84649,0.33096902 5.17007,0.28700902 Z"
         id="path4138-3-2" />
    </pattern>
    <linearGradient
       gradientUnits="userSpaceOnUse"
       y2="952.36383"
       x2="227.31712"
       y1="1002.1426"
       x1="102.88723"
       id="linearGradient1466"
       xlink:href="#linearGradient1464" />
    <linearGradient
       inkscape:collect="always"
       xlink:href="#linearGradient5709"
       id="linearGradient5715"
       x1="174.45451"
       y1="346.8381"
       x2="284.89685"
       y2="325.09555"
       gradientUnits="userSpaceOnUse"
       gradientTransform="matrix(1.1535333,0,0,1.3111305,-32.658882,-110.149)" />
  </defs>
  <metadata
     id="metadata5">
    <rdf:RDF>
      <cc:Work
         rdf:about="">
        <dc:format>image/svg+xml</dc:format>
        <dc:type
           rdf:resource="http://purl.org/dc/dcmitype/StillImage" />
        <dc:title></dc:title>
      </cc:Work>
    </rdf:RDF>
  </metadata>
  <g
     id="layer1">
    <g
       style="opacity:1;stop-opacity:1"
       id="layer1-9"
       transform="matrix(0.4038482,0,0,0.4038482,-60.375297,-121.90645)">
      <text
         xml:space="preserve"
         style="font-style:normal;font-weight:normal;font-size:40px;line-height:125%;font-family:sans-serif;letter-spacing:0px;word-spacing:0px;fill:#000000;fill-opacity:1;stroke:none;stroke-width:1px;stroke-linecap:butt;stroke-linejoin:miter;stroke-opacity:1"
         x="196.75726"
         y="294.32272"
         id="text4142"><tspan
           id="tspan4144"
           x="196.75726"
           y="294.32272" /></text>
      <path
         style="opacity:1;fill:#000000;fill-opacity:0;stroke:none;stroke-width:2.5;stroke-linecap:round;stroke-linejoin:round;stroke-miterlimit:4;stroke-dasharray:none;stroke-dashoffset:2.55745578;stroke-opacity:1"
         id="path5701"
         d="m 179.7357,322.36474 c -1.44227,-0.52035 -2.94531,-0.82894 -4.46094,-1.03578 -1.06199,-0.12451 -2.13219,-0.12811 -3.19982,-0.1316 -0.85605,0.001 -1.71208,0.009 -2.56813,0.0123 -1.05678,-0.015 -2.07933,0.27778 -3.05663,0.65546 -1.75416,0.49405 -9.07622,4.78228 -1.87782,0.70299 -2.72152,1.55596 -5.20424,3.46834 -7.50002,5.59416 -1.17071,1.20987 -2.267,2.52286 -3.06348,4.01551 -0.43783,0.82055 -0.53235,1.16451 -0.8459,2.01819 -0.51431,1.56501 -0.63943,3.2029 -0.6861,4.83731 -0.0808,1.57344 0.0237,3.12543 0.27671,4.67744 0.37819,2.24563 1.09384,4.41473 1.95198,6.51825 0.90216,2.07029 2.01109,4.02855 3.27405,5.89722 1.15623,1.78847 2.56601,2.86806 4.35462,3.94988 1.43188,0.7408 2.99524,1.08436 4.58187,1.28153 1.67579,0.16133 3.36195,0.15147 5.04371,0.15686 1.21878,-0.0418 2.44728,0.074 3.66291,-0.0574 0.87282,-0.0943 1.3776,-0.23174 2.25491,-0.42296 0.44554,-0.14152 0.89665,-0.26652 1.3366,-0.42454 0.48703,-0.17494 0.97123,-0.3601 1.44258,-0.57371 0.5059,-0.22927 1.96144,-1.041 1.48617,-0.75356 -5.87827,3.55509 -2.3457,1.29016 -1.39359,0.51064 0.47349,-0.38767 0.90465,-0.82433 1.35697,-1.23649 2.81614,-2.85388 4.45068,-6.52515 5.9753,-10.16991 1.41238,-3.4917 2.47906,-7.1107 3.33564,-10.77492 0.43511,-1.95653 0.72098,-3.9426 0.83693,-5.94303 0.007,-0.77265 0.0786,-1.55548 -0.01,-2.32545 -0.11825,-0.80805 -0.7295,-1.38261 -1.25116,-1.96363 -1.22449,-1.51322 -2.73223,-2.74498 -4.29786,-3.88512 -1.28812,-0.95464 -2.74512,-1.62346 -4.15956,-2.36081 -0.79116,-0.31487 -1.60703,-0.5882 -2.43007,-0.81125 -0.70219,-0.12331 -1.38707,-0.30234 -2.09523,-0.40045 -0.81476,-0.0336 -1.6099,-0.17654 -2.41424,-0.29834 -0.75338,-0.11145 -1.51476,-0.13969 -2.27504,-0.15472 -0.58521,-0.008 -1.1705,-0.006 -1.75576,-0.006 0,0 4.20831,-3.05758 4.20831,-3.05758 l 0,0 c 0.5879,6.1e-4 1.17593,8.4e-4 1.76363,0.0187 0.77215,0.0295 1.54368,0.0836 2.30669,0.21146 0.80333,0.12663 1.60942,0.20059 2.41644,0.29707 0.71896,0.12294 1.43334,0.27894 2.14107,0.45386 0.83339,0.26801 1.67929,0.51861 2.46445,0.91051 1.42208,0.7548 2.8622,1.48833 4.15679,2.45486 1.58181,1.17803 3.11014,2.43696 4.38953,3.94802 0.59948,0.65052 1.27515,1.30326 1.43549,2.2109 0.14172,0.80111 0.0364,1.6288 0.0305,2.43786 -0.13744,2.04571 -0.45931,4.07411 -0.91078,6.07394 -0.85645,3.69353 -1.93812,7.33725 -3.33366,10.86538 -1.514,3.68349 -3.12283,7.40348 -5.87146,10.35731 -0.44447,0.42843 -0.86666,0.88123 -1.3334,1.28528 -2.11209,1.82844 -4.9607,3.22593 -7.2332,4.50456 -1.36743,0.76939 -2.87259,1.272 -4.37999,1.67942 -1.02009,0.20345 -1.33641,0.29992 -2.33484,0.38173 -1.22257,0.10018 -2.45518,9.1e-4 -3.67942,0.037 -1.69888,-0.006 -3.40444,9e-5 -5.09362,-0.20525 -1.63433,-0.24495 -3.24177,-0.6434 -4.69247,-1.46584 -1.74811,-1.10316 -3.33451,-2.36912 -4.44756,-4.14812 -1.27725,-1.90114 -2.40612,-3.88819 -3.32387,-5.98999 -0.8699,-2.13524 -1.60021,-4.33367 -2.02412,-6.60437 -0.29064,-1.57632 -0.43346,-3.15054 -0.34667,-4.75581 0.0386,-1.68706 0.1573,-3.37496 0.64968,-5.0008 0.27054,-0.7805 0.44598,-1.36241 0.81802,-2.111 0.76794,-1.54519 1.87789,-2.89425 3.03345,-4.16058 2.26701,-2.17007 4.74763,-4.11577 7.46548,-5.69535 3.4667,-2.02652 6.89163,-4.2885 10.67839,-5.70404 1.03577,-0.33575 2.09555,-0.58116 3.19307,-0.53959 0.85353,-0.002 1.70707,-0.005 2.56059,-1.8e-4 1.07894,0.0115 2.16051,0.0408 3.22944,0.20146 1.53748,0.255 3.05588,0.61055 4.53358,1.11068 0,0 -4.29929,2.90009 -4.29929,2.90009 z"
         inkscape:connector-curvature="0" />
      <path
         style="opacity:1;fill:url(#linearGradient5715);fill-opacity:1;stroke:none;stroke-width:2.5;stroke-linecap:round;stroke-linejoin:round;stroke-miterlimit:4;stroke-dasharray:none;stroke-dashoffset:2.55745578;stroke-opacity:1"
         id="path5705"
         d="m 177.86752,314.42854 c -1.64853,-0.54735 -3.26011,-1.22909 -4.92399,-1.7159 -1.02543,-0.32854 -1.65698,-0.30398 -2.66466,-0.0883 -1.2586,0.56928 -2.43581,1.3295 -3.62343,2.06433 -3.41631,2.20567 2.37145,-1.53229 2.81909,-1.80695 0.41315,-0.25349 -0.79741,0.56357 -1.19604,0.84545 -1.2278,0.86826 -2.44418,1.73651 -3.6354,2.66862 -2.18055,1.81403 -4.07198,3.99366 -5.82831,6.31436 -1.1157,1.72561 -2.09022,3.58367 -2.83972,5.54987 -0.45258,1.35829 -0.74672,2.76389 -0.90562,4.20229 -0.10332,1.09238 -0.11329,2.19181 -0.11674,3.28925 6.8e-4,0.92553 0.004,1.85106 0.006,2.77657 0.002,0.91412 0.002,1.82824 0.002,2.74236 1.2e-4,0.91599 7e-5,1.83197 3e-5,2.74795 -0.068,0.82465 0.093,1.61527 0.2214,2.41857 0.22729,0.72204 0.39628,1.45252 0.49082,2.21191 0.18937,0.71565 0.27896,1.45905 0.44159,2.18077 0.21412,0.71228 0.29744,1.45744 0.49248,2.17501 0.23848,0.79346 0.43834,1.59812 0.64569,2.40259 0.27745,1.02599 0.61641,2.02973 0.95087,3.03352 0.42898,1.14362 1.00552,2.20433 1.4727,3.32676 0.33689,0.67692 0.68107,1.35245 1.06208,1.99826 0.34682,0.49003 0.5584,1.12571 0.97496,1.54449 0.36169,0.49186 0.87728,0.75374 1.43775,0.64229 0.98491,-0.62441 2.00619,-1.17346 3.01838,-1.74018 0.25375,-0.1426 1.00542,-0.59061 0.76126,-0.4278 -1.44294,0.96223 -5.798,3.79729 -4.35919,2.82706 1.92756,-1.2998 3.89489,-2.52226 5.82565,-3.81593 1.47063,-0.98537 -2.95902,1.93623 -4.44522,2.89099 -0.35628,0.2289 0.69349,-0.49435 1.0352,-0.75037 0.69451,-0.44254 1.18978,-1.12036 1.72558,-1.76669 0.93161,-1.18292 1.51396,-2.64765 2.18881,-4.02207 0.693,-1.47483 1.32408,-2.98283 1.91004,-4.5158 0.2952,-0.87845 0.62097,-1.7422 0.92293,-2.6177 0.44525,-1.39737 0.75113,-2.8439 1.14599,-4.25964 0.57963,-1.9155 0.99548,-3.88729 1.561,-5.80767 0.50275,-1.54348 1.00403,-3.08694 1.5497,-4.61157 0.41247,-0.92638 0.67337,-1.91937 1.00318,-2.8828 0.23459,-0.71711 0.36117,-1.46808 0.55731,-2.19952 0.20129,-0.78057 0.23635,-1.59547 0.2638,-2.40302 0.0697,-0.8006 0.24682,-1.57958 0.3309,-2.37904 0.0759,-0.87673 0.35784,-1.76937 0.36362,-2.64949 3.35152,-4.12982 5.70048,-7.06179 4.37042,1.31164 -0.11787,0.90986 -0.42808,1.75364 -0.67249,2.62188 -0.1392,0.73264 -0.37891,1.42883 -0.50909,2.16364 -0.0707,0.77313 -0.28888,1.51042 -0.40826,2.27334 -0.0773,0.96307 -0.2198,1.91488 -0.39589,2.86068 -0.28711,1.20783 -0.41094,2.45072 -0.49151,3.69489 -0.0655,1.34923 -0.0654,2.70111 -0.0654,4.05196 10e-4,1.24346 0.005,2.4869 0.0108,3.73033 0.003,0.97022 0.004,1.94042 0.004,2.91064 0.0973,0.74342 0.18616,1.50042 0.34497,2.23112 0.15505,0.7091 0.36057,1.39506 0.56072,2.08826 0.23252,0.71117 0.51344,1.40837 0.84532,2.06708 0.23659,0.61893 0.51689,1.14135 0.97759,1.57223 0.48431,0.34083 0.97961,0.64739 1.48768,0.94334 0.46965,0.38328 0.96121,0.77059 1.5011,1.01544 0.50941,0.44831 1.10708,0.57011 1.72998,0.64476 0.76691,0.0655 1.53677,0.0591 2.30532,0.0589 4.11591,0.45292 3.75982,-4.63745 5.98635,-6.32938 0.30448,-0.1867 1.20463,-0.77412 0.90408,-0.57937 -5.71401,9.83441 -4.63701,3.84953 0.34683,-1.35773 0.61048,-0.48483 1.02939,-1.24532 1.63146,-1.73444 0.2504,0.43526 0.0901,0.38147 -0.17779,0.53491 -0.0688,0.0395 -0.12116,0.10873 -0.18175,0.1631 -0.0804,0.0424 -0.16092,0.0849 -0.24138,0.12732 1.64356,-1.06463 3.28387,-2.13577 4.93066,-3.1939 0.0835,-0.0537 -0.15721,0.1256 -0.24029,0.18019 -1.80152,1.18384 -3.61126,2.35149 -5.41305,3.53484 -1.63015,1.07063 3.26247,-2.13703 4.89816,-3.19668 0.0872,-0.0565 -0.16517,0.13033 -0.25234,0.18696 -1.80849,1.17492 -3.62279,2.33826 -5.43419,3.50739 12.91513,-8.42205 -0.33458,0.24405 -0.50696,0.35639 -1.63534,1.06578 3.26093,-2.15088 4.89995,-3.20933 0.53517,-0.34561 -0.50775,0.41808 -0.66326,0.575 -0.39405,0.49557 -0.66552,1.08232 -0.95979,1.65513 -0.33106,0.53601 -0.65576,1.09096 -0.88304,1.6945 -0.22804,0.64798 -0.48576,4.93616 -0.53806,5.63984 -0.0206,0.65424 0.39053,0.86271 0.84463,1.1345 0.61306,0.16103 1.20425,0.39351 1.81578,0.56769 0.70734,0.16406 1.43219,0.1766 2.15129,0.19211 0.80037,0.0109 1.60082,0.007 2.40124,0.004 0.34729,0.0131 0.73814,-0.0326 1.06411,-0.18828 0.18528,-0.0885 0.34402,-0.23694 0.52266,-0.34159 l -4.91311,3.18864 c 0.47922,-0.38947 0.8035,-0.97512 1.2045,-1.46303 0.46192,-0.62222 0.83918,-1.31609 1.29374,-1.94482 0.3948,-0.50771 0.75139,-1.04281 1.06622,-1.61876 0.31373,-0.69996 0.33883,-1.49511 0.37035,-2.26412 0.0176,-0.84869 0.062,-1.69625 -0.0755,-2.53397 -1.7345,-2.69803 2.19323,-3.66307 4.23543,-4.67367 0.11373,-0.0551 0.0651,0.27121 0.10364,0.40472 0.082,0.28456 0.17875,0.56336 0.26645,0.84572 0.19608,0.81014 0.35959,1.62564 0.55561,2.43655 0.2072,0.80548 0.18428,1.65001 0.28923,2.47212 0.17488,0.7929 0.27647,1.59813 0.33398,2.41181 0.0507,0.90508 0.0512,1.81247 0.0535,2.719 0.0855,0.78556 0.23832,1.55672 0.31577,2.34468 0.0737,0.89574 0.0795,1.79616 0.0855,2.69505 0.0353,0.87956 -1.3e-4,1.74076 -0.15246,2.60319 -0.0767,0.75414 -0.33206,1.42137 -0.66991,2.06459 -0.36927,0.50726 -0.63931,1.0911 -1.00428,1.60196 -0.35372,0.51302 -0.73946,1.00391 -1.15689,1.45166 -0.40034,0.4608 -0.78927,0.93727 -1.2091,1.37575 -0.37944,0.51348 -0.83454,0.91476 -1.29891,1.31838 -3.20967,2.45431 -4.2912,3.32108 -7.17235,4.01167 -0.81567,0.0976 -1.59375,0.37951 -2.40389,0.52225 -0.8127,0.12312 -1.63367,0.1354 -2.45217,0.1452 -0.74343,-0.0897 -1.36201,-0.52518 -2.00422,-0.91841 -0.63802,-0.52947 -1.15126,-1.22343 -1.63619,-1.92528 -0.4594,-0.54986 -0.84814,-1.19014 -1.14464,-1.86954 -0.28405,-0.79816 -0.36069,-1.66421 -0.33942,-2.51813 0.0858,-0.73803 0.47042,-1.31614 0.92818,-1.81896 2.58317,-2.84413 2.02969,-2.03828 4.98597,-3.11279 -7.28748,2.88893 2.44675,-1.58931 2.65983,-1.7262 2.37858,-0.90047 5.09561,-1.63392 7.48421,-2.22372 0.69937,-0.0131 1.28124,-0.4663 1.96557,-0.59598 0.66621,-0.0109 1.1499,-0.53117 1.74246,-0.78401 0.10581,-0.0303 0.21622,-0.0444 0.31736,-0.0909 1.28421,-0.58988 -0.79601,0.23834 0.53807,-0.31109 0.3201,-0.13183 0.65263,-0.18254 0.98782,-0.23438 0.63419,-0.32275 1.30576,-0.38431 1.92027,-0.76005 0.12421,-0.062 0.49001,-0.26352 0.37265,-0.18613 -11.94326,7.87577 -0.0646,-0.16751 0.94107,-0.78155 2.24877,-1.12966 -6.39183,4.44062 -4.816,3.3065 1.76436,-1.26979 3.61478,-2.37807 5.42216,-3.56711 -9.00133,5.8009 -5.35457,3.96131 -3.75939,2.14698 0.4475,-0.4031 0.78527,-0.90474 1.12441,-1.41787 0.27737,-0.58457 0.59391,-1.13771 0.91552,-1.69136 0.30436,-0.57429 0.59138,-1.1584 0.86477,-1.7528 0.21361,-0.6336 0.6107,-1.14795 0.87342,-1.74956 0.23838,-0.63857 0.49356,-1.26785 0.75159,-1.89634 0.25278,-0.63092 0.52004,-1.25455 0.81527,-1.86163 0.33327,-0.54494 0.64572,-1.11098 0.90467,-1.70638 0.28365,-0.52859 0.50068,-1.11313 0.64709,-1.70925 3.87006,-1.7505 5.16553,-4.76781 5.6833,-2.06673 0.12011,0.62651 0.0956,1.22348 0.0135,1.85198 -0.17713,0.88276 -0.23201,1.78582 -0.34134,2.67978 -0.18571,0.77295 -0.27515,1.56468 -0.38833,2.35308 -0.14648,0.79964 -0.41461,1.55827 -0.59997,2.34528 -0.18072,0.86209 -0.20854,1.75026 -0.22938,2.63216 0.01,0.64468 0.26366,1.10779 0.79699,1.31439 0.68769,0.16724 1.39733,0.15345 2.09711,0.15746 0.80683,-0.001 1.61363,-0.008 2.42046,-0.0118 0.71791,0.10524 1.25187,-0.39111 1.88248,-0.6526 -0.37544,0.034 1.15594,-0.72479 0.78842,-0.48096 -1.62609,1.07884 -6.5045,4.31265 -4.90677,3.18039 1.76404,-1.25014 3.59973,-2.36468 5.40604,-3.53421 1.62506,-1.05219 -3.24151,2.12142 -4.86229,3.18213 0.5392,-0.38568 1.01199,-0.88917 1.45114,-1.41149 0.56283,-0.6294 1.06609,-1.32552 1.60293,-1.98439 0.623,-0.72461 1.18332,-1.51391 1.7873,-2.25814 0.52742,-0.79583 0.98268,-1.65223 1.48684,-2.46866 0.6924,-1.0609 1.33471,-2.15972 1.93088,-3.29311 0.52477,-0.96008 1.02603,-1.93907 1.49428,-2.93638 0.53828,-1.19218 1.07157,-2.38422 1.58378,-3.59166 0.64558,-1.46494 1.22893,-2.96305 1.90126,-4.41265 0.69858,-1.5537 1.47923,-3.05513 2.25547,-4.55933 0.75335,-1.50649 1.54491,-2.98658 2.29349,-4.49602 0.38994,-0.88972 0.90505,-1.68821 1.40437,-2.49816 0.33101,-0.56104 0.62537,-1.14528 0.90422,-1.74156 0.32156,-0.82775 0.75554,-1.58906 1.10047,-2.40369 0.35643,-0.72351 0.60115,-1.47728 0.7874,-2.27517 0.20248,-0.70018 0.36745,-1.40903 0.58167,-2.10479 0.22301,-0.76726 0.25931,-1.57733 0.28887,-2.37804 0.0231,-0.90768 0.0189,-1.81588 0.0177,-2.72384 l -0.003,-2.75268 c -0.0152,-0.85228 -0.24679,-1.64752 -0.47274,-2.44833 -0.13599,-0.65892 -0.36551,-1.28878 -0.7525,-1.80716 -0.34855,-0.49678 -0.55147,-1.12369 -1.01711,-1.49866 -0.59101,-0.2874 -1.25458,-0.27529 -1.88669,-0.29384 -0.65465,0.13007 -1.2406,0.36833 -1.80162,0.77018 8.92356,-6.18326 4.96541,-3.23842 2.97636,-1.74685 -0.62136,0.41664 -1.06102,1.04009 -1.53506,1.64014 -0.58348,0.75015 -0.93445,1.65958 -1.36092,2.52078 -0.45008,0.76007 -0.7974,1.58338 -1.17682,2.3883 -0.27336,0.68009 -0.50131,1.38494 -0.73484,2.08471 -0.32452,0.62574 -0.42313,1.34191 -0.61926,2.02124 -0.19504,0.7153 -0.31368,1.44851 -0.50245,2.16655 -0.12028,0.74321 -0.3188,1.46216 -0.48188,2.19337 -0.19854,0.71554 -0.40953,1.41181 -0.51058,2.15619 -0.13769,0.76212 -0.32324,1.50472 -0.41198,2.27828 -0.0415,0.83947 -0.0879,1.66468 -0.24043,2.48851 -0.16061,0.80904 -0.20311,1.63745 -0.23113,2.46347 0.0194,0.93498 -0.0453,1.8526 -0.18017,2.77364 -0.14266,0.89505 -0.19325,1.80269 -0.22264,2.71013 -0.0221,0.91293 -0.0201,1.82633 -0.0199,2.73954 8.1e-4,0.91626 0.001,1.83254 0.002,2.74879 4e-4,0.91631 4.2e-4,1.83262 4.4e-4,2.74893 10e-6,0.91627 0,1.83252 0,2.7488 l -1e-5,2.74877 c 0.006,0.85674 -0.0462,1.71161 0.0907,2.55749 0.11305,0.74055 0.34154,1.45302 0.72596,2.06639 0.38076,0.57335 0.54124,1.27916 0.89179,1.87239 0.26716,0.52293 0.71109,0.91392 1.19749,1.14974 0.62005,0.14115 1.19254,0.42749 1.81674,0.55807 0.65653,0.15175 1.28085,0.40269 1.95273,0.50037 0.75635,0.0847 1.51741,0.0848 2.27666,0.0889 0.80538,10e-4 1.61074,-10e-4 2.41612,-0.002 0.51394,-0.17903 1.06956,-0.17213 1.58731,-0.31793 0.22924,-0.0645 0.44288,-0.18681 0.66642,-0.27338 0.62892,-0.23949 1.2223,-0.59728 1.84734,-0.8691 0.11363,-0.0679 0.22269,-0.14717 0.34105,-0.20386 0.13822,-0.0662 0.2886,-0.0961 0.42633,-0.16365 0.13352,-0.0654 0.51071,-0.31619 0.38464,-0.23386 -15.96035,10.42407 11.96092,-7.85804 -3.97729,2.57393 1.17364,-0.83392 2.5438,-1.29211 3.6719,-2.20363 10.36855,-8.93588 -0.17236,2.36991 5.5124,-5.09663 0.40547,-0.46727 0.75358,-0.97838 1.0615,-1.53346 0.2885,-0.64537 0.36565,-1.3615 0.28056,-2.07129 -0.1467,-0.65836 -0.44392,-0.93609 -1.00526,-1.08082 -0.72489,-0.12364 -1.46122,-0.11039 -2.19232,-0.11065 -2.91353,0.81477 -4.21204,3.32178 -4.21204,3.32178 -0.30058,0.70975 -0.37069,1.48836 -0.41753,2.26294 -0.0771,0.82546 -0.0182,1.6236 0.12595,2.43145 0.16069,0.55918 0.57352,0.99033 0.96853,1.3522 0.54883,0.37333 0.13558,0.1972 0.65548,0.62214 0.52069,0.37287 2.06612,1.18705 2.58703,1.55481 0.54349,0.28326 1.03904,0.63821 1.62496,0.80276 0.63357,0.18779 1.23846,0.43034 1.89547,0.52668 0.75622,0.0843 1.51713,0.0834 2.27618,0.0871 5.10656,0.009 9.60417,-2.07954 14.07861,-3.53273 2.17305,-0.72789 3.7101,-1.57377 5.42506,-2.27907 1.87508,-1.02722 4.00752,-2.51352 -4.36344,2.87609 -0.0854,0.055 0.1677,-0.11604 0.25204,-0.17318 0.33616,-0.22771 0.15192,-0.08 0.46508,-0.36615 1.81852,-1.56762 3.93491,-2.64529 5.94156,-3.86311 0.28354,-0.17207 0.55946,-0.22698 0.82984,-0.43092 0.0909,-0.0491 0.35992,-0.20431 0.27282,-0.14701 -1.63172,1.07344 -3.26759,2.13873 -4.90748,3.19595 -0.0848,0.0546 0.15713,-0.13219 0.24149,-0.18781 1.79977,-1.18647 3.61401,-2.34447 5.41017,-3.53798 1.62655,-1.08082 -3.26463,2.13906 -4.90135,3.19987 -0.0858,0.0556 0.16549,-0.12271 0.24823,-0.18404 2.13722,-1.62769 4.35991,-3.17854 6.70855,-4.34193 -1.63624,1.06263 -3.26969,2.13082 -4.90871,3.18789 -0.0853,0.055 0.16195,-0.12586 0.24691,-0.1813 1.80438,-1.1783 3.60134,-2.37178 5.42078,-3.51979 1.64694,-1.03916 -3.26669,2.13307 -4.90323,3.19322 -0.0859,0.0557 0.16525,-0.12416 0.25129,-0.17968 1.81004,-1.16905 3.62444,-2.32932 5.43666,-3.49398 -1.63517,1.06072 -6.5109,4.30011 -4.90551,3.18217 1.77275,-1.23445 3.59556,-2.37385 5.40776,-3.53194 0.0912,-0.0583 0.2042,-0.0604 0.29769,-0.11406 0.0872,-0.0501 0.32343,-0.24851 0.23858,-0.19351 -4.87662,3.16097 -6.33761,4.63883 -4.69303,3.00655 0.22425,-0.14958 0.3383,-0.43711 0.5492,-0.60242 0.14883,-0.1167 0.14044,0.11498 0.081,0.20241 -0.63341,-0.004 -1.26731,-0.0185 -1.90116,-0.0182 -0.78381,0.0584 -1.59589,-0.11289 -2.36256,0.10209 -0.6925,0.22795 -1.41092,0.29318 -2.1272,0.33653 -0.7936,0.0362 -1.58802,0.0338 -2.3821,0.0341 -0.80687,-9.1e-4 -1.61372,-0.002 -2.42061,-0.002 -0.80635,-6.4e-4 -1.61273,-7e-4 -2.41909,-7.5e-4 -3.09407,-0.0633 -2.61396,1.01724 3.77018,-4.01526 0.70963,0.005 1.41927,0.005 2.1289,0.007 0.8108,4.1e-4 1.62159,2.9e-4 2.43237,2.6e-4 0.80794,-4e-5 1.61586,-6e-5 2.42379,-7e-5 0.79681,-0.032 1.56446,-0.0226 2.34051,0.18248 0.69783,0.18811 1.4151,0.22962 2.12899,0.25917 0.7931,0.0236 1.58655,0.0205 2.37985,0.0198 0.78576,-0.0577 2.11518,-0.1436 2.13055,-0.19953 0.21532,0.68669 -0.22827,2.40829 -0.5153,3.02354 -0.38374,0.494 -0.69691,1.04956 -1.08262,1.54124 -0.37189,0.49725 -0.75931,0.98543 -1.17875,1.43213 -0.40751,0.46774 -0.80243,0.95239 -1.23102,1.39576 -0.50579,0.32405 -0.84345,0.86492 -1.24267,1.32635 -0.48057,0.35708 -0.87181,0.79052 -1.24566,1.27778 -0.23379,0.35627 -0.1127,0.18686 -0.36208,0.50932 l -5.5263,2.69508 0,0 c 0.22008,-0.36452 0.0961,-0.2014 0.36845,-0.49285 0.31722,-0.57982 0.68496,-1.07433 1.1769,-1.4662 0.53692,-0.31109 0.78974,-0.91766 1.23189,-1.35826 0.53574,-0.27928 0.83471,-0.83388 1.28502,-1.24268 0.35281,-0.50866 0.80536,-0.92022 1.19489,-1.39024 0.33812,-0.53677 0.762,-0.99418 1.07682,-1.55305 0.34275,-0.27774 0.54364,-0.79791 0.59702,-1.25663 -0.17303,-0.47995 -1.20552,-0.14539 -1.53176,-0.23318 -0.79976,-10e-4 -1.60003,-8.4e-4 -2.39904,-0.0459 -0.73451,-0.0532 -1.46504,-0.14656 -2.18315,-0.33693 -0.74976,-0.13681 -1.51035,-0.0599 -2.26696,-0.0784 -0.80787,-10e-6 -1.61573,-3e-5 -2.42358,-7e-5 -0.81101,-5e-5 -1.62201,-1.6e-4 -2.43303,2.6e-4 -0.71469,5.3e-4 -1.42941,7.7e-4 -2.1441,0.007 4.49284,-3.89567 2.92702,-4.06542 5.95437,-4.01521 0.80644,1.3e-4 1.6129,3.2e-4 2.41936,10e-4 0.80651,9.2e-4 1.61302,0.002 2.41954,0.001 0.78663,-0.004 1.5743,-0.007 2.3591,-0.0752 0.70967,-0.0768 1.40499,-0.23107 2.1061,-0.37208 0.80266,-0.0371 1.60651,-0.016 2.40969,-0.0224 0.68891,0.007 2.52238,0.44016 3.17376,0.72928 -7.43389,5.54968 -6.44596,4.26022 -3.21093,2.5059 l -6.14217,4.08907 c 2.93408,-2.45882 2.36992,-0.93742 -3.88662,2.45705 -0.0919,0.0489 -0.36767,0.19255 -0.28027,0.13418 10.85813,-7.67969 2.47732,-0.5294 -2.07954,1.29424 -0.56328,0.26107 -1.09385,0.60428 -1.65265,0.87876 -5.09555,1.89326 -10.77097,3.56992 -15.56081,4.74374 -0.79778,0.0355 -1.59666,0.0131 -2.39489,0.0139 -0.77972,-0.0118 -1.56342,-0.0242 -2.33467,-0.16943 -0.66198,-0.15024 -1.2919,-0.41257 -1.94522,-0.60188 -0.5899,-0.24702 -1.13878,-0.59974 -1.69836,-0.92287 -0.56103,-0.32183 -1.12107,-0.65091 -1.64985,-1.0378 -0.55861,-0.4085 -1.10589,-0.83376 -1.65792,-1.25264 -0.4757,-0.49669 -0.95474,-1.02848 -1.16017,-1.74339 -0.15573,-0.86132 -0.27953,-1.70359 -0.19269,-2.58884 0.0303,-0.83636 0.066,-1.68575 0.31834,-2.48105 0.2809,-0.74349 0.50136,-1.52239 0.91231,-2.1924 0.27158,-0.73999 0.57408,-1.46608 0.86604,-2.1939 0.19018,-0.27848 0.27202,-0.60783 0.47507,-0.87399 1.53615,-2.01371 2.94303,-2.49735 5.79788,-4.04377 0.55993,-0.36087 1.13134,-0.62708 1.77977,-0.70778 0.75209,-0.17021 1.50569,-0.17442 2.27129,-0.15502 0.80982,-0.004 1.61967,-0.0118 2.42951,-0.007 0.77526,0.0133 1.56684,0.0118 2.31209,0.28659 0.69164,0.34908 1.11156,0.88113 1.33737,1.71077 0.13606,0.82846 0.11766,1.64156 -0.11281,2.45221 -0.19631,0.56703 -0.5925,1.2927 -1.00404,1.68213 -0.42176,0.61373 -0.91247,1.16221 -1.38141,1.72997 -0.45941,0.43987 0.15477,-0.085 -1.63316,1.72562 -0.40064,0.25432 -5.81356,4.88114 -6.17483,5.21293 -1.69181,1.55381 -1.86392,1.17871 -1.65187,0.36528 5.84213,-7.53708 0.54326,0.48386 -0.6267,1.89271 -6.43296,4.04317 7.15643,-6.22037 -2.78191,0.55031 -1.56506,1.06879 5.95343,-4.43285 4.35034,-3.43953 -1.86623,1.15638 -3.67949,2.42016 -5.53189,3.60491 -0.36962,0.23639 -0.8047,0.35031 -1.17893,0.57897 -0.61515,0.30801 -1.23071,0.62281 -1.88101,0.82201 -0.76411,0.24448 -1.56651,0.36686 -2.35704,0.4238 -0.80683,10e-4 -1.61368,0.005 -2.42052,-0.002 -0.77928,-0.0131 -1.56225,-0.0265 -2.33338,-0.16877 -0.66644,-0.14598 -1.30489,-0.40477 -1.97465,-0.53294 -0.64556,-0.19097 -1.28892,-0.42385 -1.9078,-0.70255 -0.53762,-0.36631 -1.04666,-0.81626 -1.35983,-1.44659 -0.33741,-0.5981 -0.52341,-1.27777 -0.8815,-1.86023 -0.41251,-0.69827 -0.71042,-1.48034 -0.84414,-2.31055 -0.16447,-0.88806 -0.15778,-1.77319 -0.13889,-2.67917 l 1e-5,-2.7488 1e-5,-2.74877 c -1e-5,-0.9162 -1e-5,-1.83241 -3.1e-4,-2.74862 -3.8e-4,-0.91625 -0.001,-1.83249 -0.002,-2.74874 -8e-4,-0.91962 -0.003,-1.83934 0.0116,-2.75886 0.021,-0.93365 0.0549,-1.86917 0.18723,-2.79262 0.13249,-0.8966 0.27318,-1.77467 0.21425,-2.69055 0.0184,-0.85839 0.0419,-1.72068 0.17963,-2.56724 0.14732,-0.81009 0.29992,-1.59346 0.26856,-2.43049 0.0612,-0.7792 0.15794,-1.5537 0.40688,-2.28858 0.0679,-0.76162 0.1665,-1.52356 0.48448,-2.21044 0.12594,-0.75688 0.39384,-1.4575 0.46706,-2.22533 0.16506,-0.73726 0.38511,-1.44413 0.48732,-2.19988 0.0665,-0.21927 0.16216,-0.42726 0.21593,-0.65096 0.11623,-0.48374 0.11996,-1.00866 0.37094,-1.44625 0.34341,-0.64254 0.48399,-1.41371 0.73338,-2.10651 0.36495,-0.82836 0.73077,-1.65222 1.16431,-2.4394 0.50228,-0.8356 0.77134,-1.80433 1.32871,-2.60171 0.40674,-0.62156 0.9215,-1.36467 1.47846,-1.79659 0.46957,-0.44066 1.00034,-0.74588 1.50283,-1.127 0.11759,-0.0891 0.20429,-0.22643 0.32572,-0.30868 1.80757,-1.2243 3.63764,-2.40513 5.45646,-3.6077 0.63207,-0.30411 1.29367,-0.51959 1.98862,-0.48034 0.74035,0.0565 1.499,0.1302 2.11327,0.65456 0.44347,0.46931 0.73141,1.05804 1.07935,1.61502 0.40721,0.60219 0.71783,1.28287 0.85699,2.03077 0.23633,0.86789 0.4958,1.71867 0.55313,2.63522 4.2e-4,0.91736 8.1e-4,1.83471 0.003,2.75205 0.001,0.91475 0.005,1.82958 -0.006,2.74425 -0.0185,0.85071 -0.0382,1.70897 -0.20997,2.54129 -0.17813,0.71318 -0.43165,1.38893 -0.57985,2.11355 -0.27476,0.77014 -0.29357,1.65498 -0.77356,2.336 -0.29009,0.84386 -0.71162,1.60398 -1.08736,2.39902 -0.19802,0.62735 -0.53481,1.28324 -0.87662,1.82096 -0.39919,0.89281 -1.08996,1.5759 -1.44102,2.51024 -0.78915,1.4852 -1.52695,3.0078 -2.30593,4.50156 -0.76444,1.50339 -1.57716,2.97696 -2.25239,4.53666 -0.70459,1.42263 -1.27533,2.91826 -1.91132,4.38078 -0.50976,1.20302 -0.99578,2.41296 -1.56623,3.58016 -0.39564,1.05132 -0.9715,2.01337 -1.47463,2.99845 -0.60819,1.13775 -1.209,2.27862 -1.91274,3.34591 -0.52559,0.80283 -1.02011,1.63587 -1.44848,2.5104 -0.55783,0.79852 -1.2111,1.51258 -1.79025,2.2928 -0.54271,0.65249 -1.08595,1.30706 -1.56665,2.02105 -0.50545,0.46542 -0.91042,1.06042 -1.40982,1.53756 -17.97932,11.84241 12.03215,-7.78494 -5.95114,3.88148 -0.2599,0.16859 -0.51682,0.34971 -0.80053,0.46268 -0.64467,0.33497 -1.2971,0.49712 -2.01333,0.43585 -0.80939,0.004 -1.61888,0.0134 -2.42825,10e-4 -0.76299,-0.0231 -1.54946,-0.0342 -2.25719,-0.39934 -0.64705,-0.45009 -1.0536,-1.11395 -1.12856,-1.98959 0.013,-0.92243 0.0292,-1.84945 0.1715,-2.76031 0.14692,-0.80222 0.41078,-1.55149 0.59591,-2.34045 0.21114,-0.75439 0.14468,-1.58505 0.39905,-2.3355 0.20864,-0.86557 0.13178,-1.7971 0.35097,-2.6673 0.71548,-3.93084 -2.52849,-1.14044 5.08997,-5.13641 -0.0259,0.53031 -0.29444,0.96523 -0.5438,1.29893 -0.34563,0.54558 -0.53481,1.20931 -0.8841,1.75806 -0.41014,0.49788 -0.54461,1.15544 -0.87647,1.71305 -0.19673,0.65579 -0.49704,1.26386 -0.75475,1.88907 -0.17757,0.67848 -0.51993,1.19677 -0.86238,1.77509 -0.19598,0.61839 -0.52093,1.2614 -0.84372,1.80282 -0.24066,0.63014 -0.69319,1.09367 -0.89264,1.74767 -0.29735,0.58545 -0.63943,1.11363 -1.06143,1.58597 -0.63721,0.55649 0.19649,-0.20208 -0.41355,0.45933 -1.71819,1.86284 -4.44153,3.30687 -4.67811,3.25429 3.29319,-3.95013 1.32674,-0.91945 0.33192,-0.28487 -1.61854,1.03241 0.9048,-0.44511 2.51124,-1.50167 0.10843,-0.0713 -0.21651,0.14311 -0.32524,0.21371 -5.5911,3.63101 -3.48659,1.96022 -5.79304,3.09974 -0.46028,0.47637 -1.54922,0.54359 -2.21742,0.74927 -3.80053,0.41915 -6.82936,1.81727 -9.83927,3.35419 -0.61687,0.2388 -1.23038,0.48605 -1.84152,0.74024 -0.30702,0.15243 -0.62831,0.26306 -0.92968,0.4299 -0.1044,0.0578 -0.40654,0.25507 -0.30617,0.18874 2.81468,-1.86024 10.76033,-7.06881 -0.63916,0.40925 8.83716,-5.84206 5.22009,-3.63531 3.40587,-2.11029 -0.52063,0.25405 -0.85061,0.74125 -1.14642,1.27535 -0.1245,0.71833 -0.006,1.48855 0.18563,2.1809 0.27041,0.64146 0.6544,1.221 1.07329,1.74653 0.44123,0.62727 0.89785,1.26766 1.50966,1.68876 0.57225,0.35251 1.15512,0.66677 1.82388,0.63421 0.80138,-0.0234 1.6055,-0.06 2.395,-0.23135 0.79548,-0.18269 1.586,-0.38935 2.38411,-0.55614 2.34165,-0.72047 5.6613,-2.57994 -3.19925,2.61509 0.50284,-0.32238 0.94723,-0.70259 1.35277,-1.16523 0.35266,-0.50742 0.80556,-0.92231 1.21071,-1.37142 0.35071,-0.50591 0.80065,-0.91308 1.18078,-1.3888 0.32677,-0.54713 0.73081,-1.02455 0.99675,-1.62148 0.43485,-0.46027 0.70983,-1.10856 0.79253,-1.77609 0.14967,-0.82775 0.29346,-1.6253 0.2135,-2.48046 -0.003,-0.87847 -0.004,-1.75804 -0.0623,-2.63459 -0.0667,-0.81242 -0.20616,-1.60695 -0.33994,-2.40764 -7.5e-4,-0.89175 9e-4,-1.78405 -0.0369,-2.67501 -0.0443,-0.79225 -0.12239,-1.58036 -0.30838,-2.34827 -0.14129,-0.7979 -0.0817,-1.62542 -0.2651,-2.41886 -0.18358,-0.79909 -0.50984,-5.02568 -1.91415,-6.14661 -1.30998,-2.6484 5.23355,-2.63913 6.38454,-1.21854 0.35813,0.59404 0.72097,1.19652 0.94538,1.87392 0.16656,0.8872 0.16625,1.77237 0.13587,2.67811 -0.0186,0.84546 -0.034,1.70431 -0.25173,2.52022 -0.21382,0.61635 -0.59827,1.28892 -1.02186,1.74108 -0.41711,0.66502 -0.90698,1.26737 -1.28628,1.96641 -0.36019,0.5662 -0.8535,1.00373 -1.13697,1.63564 -2.59089,1.71385 -4.31224,3.90086 -7.12301,3.85371 -0.80447,0.001 -1.60916,0.005 -2.41339,-0.0208 -0.75287,-0.0346 -1.51121,-0.0837 -2.23978,-0.32097 -0.64101,-0.21841 -1.31135,-0.36065 -1.90711,-0.71494 -0.58388,-0.42794 -1.1155,-0.88505 -1.15258,-1.7451 0.0439,-4.0539 0.84387,-6.88145 2.20881,-9.39998 0.16648,-0.34371 0.56094,-0.82854 0.56094,-0.82854 2.3199,-2.56219 2.8985,-2.75007 7.46319,-4.85157 0.62208,-0.29055 6.9739,0.82394 7.21343,1.64375 -0.10959,0.71906 -4.84464,4.32244 -5.94443,1.61308 -2.07556,-0.38457 -3.93188,1.68481 -5.17922,2.82416 -3.22239,2.66859 -6.79446,8.45988 -10.41865,10.33601 -1.12434,0.51148 -2.28519,0.99018 -3.51161,1.00901 -0.78759,-0.007 -1.5791,-0.007 -2.36019,-0.13576 -0.65862,-0.14206 -1.26419,-0.39221 -1.83242,-0.80356 -0.5245,-0.3132 -1.02412,-0.67772 -1.51958,-1.04604 -0.53517,-0.33738 -1.08767,-0.6409 -1.56661,-1.08169 -0.46905,-0.51218 -0.8267,-1.07664 -1.07363,-1.76381 -0.34835,-0.70228 -0.64544,-1.44018 -0.90633,-2.18951 -0.19431,-0.70613 -0.42265,-1.39347 -0.57275,-2.11517 -0.20103,-0.77901 -0.25111,-1.60454 -0.41152,-2.39656 3.9e-4,-0.97152 0.001,-1.94304 0.003,-2.91456 0.002,-1.24633 0.002,-2.49267 0.002,-3.739 0.002,-1.36216 -0.008,-2.72525 0.0424,-4.08651 0.0604,-1.27523 0.17613,-2.5522 0.43854,-3.79636 0.21909,-0.91309 0.34369,-1.85863 0.40553,-2.80091 0.0872,-0.7789 0.2984,-1.5146 0.40352,-2.28263 0.0929,-0.77175 0.31183,-1.48351 0.4813,-2.22848 0.18869,-0.88807 0.57933,-1.68794 0.7104,-2.5958 0.2996,-1.38168 1.24031,-6.3748 1.45344,-7.77506 0.36843,-1.83297 0.25888,-0.94537 4.94838,-3.8572 -0.0346,1.73563 -0.2795,5.36553 -0.37241,6.97438 -0.0594,0.7906 -0.16307,1.57157 -0.35229,2.33701 -0.0171,0.85226 -0.0357,1.71085 -0.19331,2.54768 -0.17111,0.76029 -0.39574,1.4936 -0.53576,2.26385 -0.33639,0.97098 -0.59252,1.9746 -1.02248,2.90325 -0.54666,1.5232 -1.08827,3.04683 -1.58718,4.59146 -0.60006,1.90316 -1.01504,3.86778 -1.56205,5.78987 -0.39867,1.41003 -0.70919,2.84593 -1.10407,4.25613 -0.24673,0.91682 -0.63642,1.7662 -0.91896,2.66722 -0.57701,1.56851 -1.25752,3.07814 -1.91554,4.60355 -0.70248,1.37852 -1.26942,2.84376 -2.07871,4.15001 -0.557,0.65254 -1.0126,1.41958 -1.70178,1.89822 -2.049,1.74893 -4.89397,3.31829 -6.78176,4.60519 -1.43806,0.98031 5.81119,-3.8073 4.35267,-2.86684 -6.85195,4.41809 -3.72914,2.63796 -6.60523,4.25646 -1.01085,0.56778 -2.10969,1.40951 -3.24412,1.51134 -0.66574,-0.15305 -1.2458,-0.4603 -1.68799,-1.06688 -0.40606,-0.50129 -0.68638,-1.11377 -1.03612,-1.6653 -0.3875,-0.6813 -0.75404,-1.3794 -1.08909,-2.09633 -0.4576,-1.14449 -1.04134,-2.21843 -1.48501,-3.37078 -0.34979,-1.01306 -0.69335,-2.0313 -0.98607,-3.06675 -0.22274,-0.79616 -0.39479,-1.61008 -0.65169,-2.39392 -0.20205,-0.72516 -0.29696,-1.4687 -0.50075,-2.19363 -0.19578,-0.74444 -0.24341,-1.5338 -0.47935,-2.27004 -0.0759,-0.75374 -0.22854,-1.4778 -0.47907,-2.1833 -0.12543,-0.84072 -0.33838,-1.66439 -0.26412,-2.52717 2e-5,-0.91593 5e-5,-1.83185 -3e-5,-2.74777 -1.4e-4,-0.91364 -3.3e-4,-1.82729 -0.002,-2.74092 -0.002,-0.92723 -0.005,-1.85444 -0.005,-2.78166 0.002,-1.12328 0.0116,-2.24811 0.10386,-3.36746 0.14092,-1.49816 0.41359,-2.95555 0.84927,-4.38162 0.72175,-2.04636 1.74181,-3.93403 2.8151,-5.76526 1.74604,-2.37098 3.63118,-4.59257 5.79391,-6.48233 3.8351,-3.13266 8.05257,-5.63333 12.09648,-8.381 1.21579,-0.74982 2.4487,-1.61147 3.816,-1.93986 0.9469,-0.13413 1.8673,0.0431 2.78134,0.34637 1.64793,0.54297 5.39309,7.48169 6.03563,8.5895 l -4.67051,2.88061 z"
         inkscape:connector-curvature="0"
         sodipodi:nodetypes="ccccsccccccccccccccccccccsssccccccccccccccccccccccccccccccccccccccccscccsscccccccccccccccccccccccccccccccccccccccccccccsccccsccccccccccscccccccccssscccccccccccccccccccccccccccccccccccccccccsccccccccccccscscccccccccccccccccccccscccsscccccscccsccscccccccccccscccccccccccccccccccccccccsccccccccccccccccccccccccccccccccccccccccccsscccccccccccccccccccccccccccccccsccccccccccccccccccccccccsccccccccccccccccccccsccccccccccccccccccccccccccccccccccccccccccccccccccccccccccccccccccccccccccccccccssccccccccccccccccccccccccc" />
      <path
         style="opacity:1;fill:#6c0d4c;fill-opacity:1;stroke:#6e0c4a;stroke-width:3.07452512;stroke-linecap:round;stroke-linejoin:round;stroke-miterlimit:4;stroke-dasharray:none;stroke-dashoffset:2.55745578;stroke-opacity:1"
         id="path5707"
         d="m 223.87992,334.62863 c -0.0664,1.67566 -0.0168,3.34018 0.16414,5.00323 0.12734,0.63642 0.057,0.32751 0.20907,0.92732 0,0 -5.26632,3.26488 -5.26632,3.26488 l 0,0 c -0.16718,-0.65776 -0.0862,-0.31347 -0.23959,-1.03384 -0.17154,-1.6882 -0.22374,-3.37283 -0.20091,-5.0727 0,0 5.33361,-3.08889 5.33361,-3.08889 z"
         inkscape:connector-curvature="0" />
    </g>
  </g>
</svg>
