<?xml version="1.0" encoding="UTF-8" standalone="no"?>
<svg
   xmlns:dc="http://purl.org/dc/elements/1.1/"
   xmlns:cc="http://creativecommons.org/ns#"
   xmlns:rdf="http://www.w3.org/1999/02/22-rdf-syntax-ns#"
   xmlns:svg="http://www.w3.org/2000/svg"
   xmlns="http://www.w3.org/2000/svg"
   version="1.1"
   id="svg4136"
   viewBox="0 0 41.750999 44.938998"
   height="44.938999"
   width="41.750999">
  <metadata
     id="metadata4152">
    <rdf:RDF>
      <cc:Work
         rdf:about="">
        <dc:format>image/svg+xml</dc:format>
        <dc:type
           rdf:resource="http://purl.org/dc/dcmitype/StillImage" />
        <dc:title></dc:title>
      </cc:Work>
    </rdf:RDF>
  </metadata>
  <defs
     id="defs4138">
    <style
       id="style4140">.a,.b{fill:none;stroke-linecap:square;stroke-linejoin:round;stroke-width:2px;}.a{stroke:#07c6b9;}.b{stroke:#2207c6;}</style>
  </defs>
  <g
     id="g4142"
     transform="translate(1.32,-8.4740017)">
    <g
       style="stroke:#513cc3;stroke-opacity:1"
       id="g4144"
       transform="translate(2.541683,4.2901175)">
      <path
         style="fill:none;stroke:#513cc3;stroke-width:2px;stroke-linecap:square;stroke-linejoin:round;stroke-opacity:1"
         id="path4146"
         transform="matrix(0.914,0.407,-0.407,0.914,13.751,0)"
         d="M 19.57,0 0,33.809 38.848,33.516 19.57,0 16.947,13.44 13.567,29.08 0,33.809 l 12.936,-4.368 15.55,-5.006 0,0 10.362,9.081 -21.9,-19.489 z"
         class="a" />
    </g>
    <path
       style="fill:none;stroke:#7760da;stroke-width:2.00104475px;stroke-linecap:square;stroke-linejoin:round;stroke-opacity:1"
       id="path4148"
       d="M 34.991787,9.4743695 -0.31957797,35.06594 39.430127,52.41254 34.991787,9.4743695 26.211509,21.993081 15.662565,36.405349 -0.31957797,35.06594 14.855495,36.486249 l 18.132316,1.956253 0,0 6.442316,13.970038 -13.483168,-29.825359 z"
       class="b" />
  </g>
</svg>
