<?xml version="1.0" encoding="UTF-8" standalone="no"?>
<svg
   xmlns:dc="http://purl.org/dc/elements/1.1/"
   xmlns:cc="http://creativecommons.org/ns#"
   xmlns:rdf="http://www.w3.org/1999/02/22-rdf-syntax-ns#"
   xmlns:svg="http://www.w3.org/2000/svg"
   xmlns="http://www.w3.org/2000/svg"
   xmlns:xlink="http://www.w3.org/1999/xlink"
   width="40.789001mm"
   height="20.596001mm"
   viewBox="0 0 40.789001 20.596001"
   version="1.1"
   id="svg8">
  <defs
     id="defs2">
    <linearGradient
       id="linearGradient933">
      <stop
         id="stop929"
         offset="0"
         style="stop-color:#60f0f0;stop-opacity:0.51209676" />
      <stop
         id="stop931"
         offset="1"
         style="stop-color:#1766f6;stop-opacity:0.46774194" />
    </linearGradient>
    <linearGradient
       gradientUnits="userSpaceOnUse"
       y2="353.33435"
       x2="216.80629"
       y1="302.59454"
       x1="180"
       id="linearGradient935"
       xlink:href="#linearGradient933" />
  </defs>
  <metadata
     id="metadata5">
    <rdf:RDF>
      <cc:Work
         rdf:about="">
        <dc:format>image/svg+xml</dc:format>
        <dc:type
           rdf:resource="http://purl.org/dc/dcmitype/StillImage" />
        <dc:title></dc:title>
      </cc:Work>
    </rdf:RDF>
  </metadata>
  <g
     id="layer1">
    <g
       style="opacity:1;stop-opacity:1"
       id="layer1-9"
       transform="matrix(0.4038482,0,0,0.4038482,-60.375297,-121.90645)">
      <path
         style="fill:url(#linearGradient935);fill-opacity:1;fill-rule:evenodd;stroke:#000000;stroke-width:1px;stroke-linecap:butt;stroke-linejoin:miter;stroke-opacity:1"
         d="m 150,312.3622 v 40 h 100 v -40 c -0.12713,-6.17161 -3.64442,-9.97799 -10,-10 h -80 c -4.76423,-0.0302 -10.01161,5.21719 -10,10 z"
         id="path4136" />
      <text
         xml:space="preserve"
         style="font-style:normal;font-weight:normal;font-size:42.8513px;line-height:125%;font-family:sans-serif;letter-spacing:0px;word-spacing:0px;fill:#000000;fill-opacity:1;stroke:none;stroke-width:1px;stroke-linecap:butt;stroke-linejoin:miter;stroke-opacity:1"
         x="164.7907"
         y="326.05652"
         id="text4138"
         transform="scale(0.96727487,1.0338323)"><tspan
           id="tspan4140"
           x="164.7907"
           y="326.05652"
           style="font-size:18.7474px">Web Dev</tspan></text>
      <text
         xml:space="preserve"
         style="font-style:normal;font-weight:normal;font-size:40px;line-height:125%;font-family:sans-serif;letter-spacing:0px;word-spacing:0px;fill:#000000;fill-opacity:1;stroke:none;stroke-width:1px;stroke-linecap:butt;stroke-linejoin:miter;stroke-opacity:1"
         x="196.75726"
         y="294.32272"
         id="text4142"><tspan
           id="tspan4144"
           x="196.75726"
           y="294.32272" /></text>
      <path
         style="fill:#000000;fill-opacity:1;fill-rule:evenodd;stroke:#000000;stroke-width:1.07074;stroke-linecap:butt;stroke-linejoin:miter;stroke-miterlimit:4;stroke-dasharray:none;stroke-opacity:1"
         d="m 180,302.59453 v 4.76767 c -0.003,0.66992 0.38986,0.99444 1,1 h 38 c 0.45817,-0.018 0.99517,-0.54183 1,-1 v -4.76767 z"
         id="path4148" />
      <path
         style="fill:#000000;fill-opacity:1;stroke:#000000;stroke-width:0.6;stroke-linecap:round;stroke-linejoin:round;stroke-miterlimit:4;stroke-dasharray:none;stroke-dashoffset:2.55746;stroke-opacity:0"
         id="path4156"
         d="m 243.9582,321.89993 -0.74332,2.97162 -0.89198,-2.97162 -2.97163,-0.74332 2.97163,-0.89199 0.74332,-2.97162 0.89198,2.97162 2.97162,0.74332 z" />
      <path
         style="fill:#000000;fill-opacity:1;stroke:#000000;stroke-width:0.6;stroke-linecap:round;stroke-linejoin:round;stroke-miterlimit:4;stroke-dasharray:none;stroke-dashoffset:2.55746;stroke-opacity:0"
         id="path4156-7"
         d="m 234.518,315.43304 -0.74332,2.97162 -0.89199,-2.97162 -2.97162,-0.74332 2.97162,-0.89199 0.74333,-2.97162 0.89198,2.97162 2.97162,0.74333 z"
         transform="matrix(0.24706739,0,0,0.21758425,182.46467,249.57932)" />
      <path
         style="fill:#000000;fill-opacity:1;stroke:#000000;stroke-width:0.6;stroke-linecap:round;stroke-linejoin:round;stroke-miterlimit:4;stroke-dasharray:none;stroke-dashoffset:2.55746;stroke-opacity:0"
         id="path4156-76"
         d="m 235.18699,323.31228 -0.74332,2.97163 -0.89198,-2.97163 -2.97163,-0.74332 2.97163,-0.89198 0.74332,-2.97163 0.89198,2.97163 2.97163,0.74332 z"
         transform="matrix(0.35485135,0,0,0.32750734,156.36915,217.54427)" />
    </g>
  </g>
</svg>
